<svg id="visual" viewBox="0 0 1920 1080" width="1920" height="1080" xmlns="http://www.w3.org/2000/svg" xmlns:xlink="http://www.w3.org/1999/xlink" version="1.1"><rect x="0" y="0" width="1920" height="1080" fill="#F0F0F0"></rect><defs><linearGradient id="grad1_0" x1="43.8%" y1="0%" x2="100%" y2="100%"><stop offset="14.444444444444446%" stop-color="#f0f0f0" stop-opacity="1"></stop><stop offset="85.55555555555554%" stop-color="#f0f0f0" stop-opacity="1"></stop></linearGradient></defs><defs><linearGradient id="grad2_0" x1="0%" y1="0%" x2="56.3%" y2="100%"><stop offset="14.444444444444446%" stop-color="#f0f0f0" stop-opacity="1"></stop><stop offset="85.55555555555554%" stop-color="#f0f0f0" stop-opacity="1"></stop></linearGradient></defs><g transform="translate(1920, 0)"><path d="M0 594C-38.4 497.4 -76.7 400.8 -160.7 388C-244.7 375.3 -374.3 446.5 -420 420C-465.7 393.6 -427.5 269.6 -442.5 183.3C-457.6 97 -525.8 48.5 -594 0L0 0Z" fill="#FECD39"></path></g><g transform="translate(0, 1080)"><path d="M0 -594C73.6 -584.7 147.2 -575.5 227.3 -548.8C307.4 -522.1 394.1 -478 403.1 -403.1C412 -328.1 343.3 -222.3 362.2 -150C381 -77.7 487.5 -38.8 594 0L0 0Z" fill="#FECD39"></path></g></svg>