<svg width="339" height="476" viewBox="0 0 339 476" fill="none" xmlns="http://www.w3.org/2000/svg">
<path fill-rule="evenodd" clip-rule="evenodd" d="M136.701 4.56392C84.7252 20.2143 55.4677 65.2093 55.238 129.856C55.1168 163.91 52.1949 173.354 32.8898 202.004C-71.7443 357.31 92.6106 542.604 254.803 452.187C429.014 355.06 307.672 75.0609 119.744 140.524C91.8769 150.229 91.8769 150.229 94.7797 115.232C101.185 38.1142 177.467 10.624 227.81 67.2866C265.553 109.771 294.855 94.9871 264.206 48.928C238.094 9.68726 183.165 -9.42332 136.701 4.56392ZM195.452 278.65C210.47 293.65 211.669 309.116 199.191 326.914C194.227 333.987 189.206 348.242 188.026 358.597C184.881 386.208 154.985 386.208 151.84 358.597C150.66 348.242 145.639 333.987 140.676 326.914C123.112 301.871 140.363 265.905 169.933 265.905C176.951 265.905 188.434 271.64 195.452 278.65Z" fill="black"/>
</svg>
